# xmcd CD database file
#
# Track frame offsets:
#	150
#	35387
#	54587
#	76487
#	96287
#	125162
#	161237
#
# Disc length: 2763 seconds
#
# Revision: 0
# Processed by: cddbd v1.5.1PL2 Copyright (c) Steve Scherf et al.
# Submitted via: CDex 1.51
#
DISCID=5c0ac907
DTITLE=Carlos Zingaro - Peggy Lee - Western Front, Vancouver 1996
DYEAR=1996
DGENRE=Jazz
TTITLE0=Puzzle I
TTITLE1=Distant Travelers
TTITLE2=Chisel
TTITLE3=Driftwood
TTITLE4=Wide Around
TTITLE5=Pebbles
TTITLE6=Puzzle
EXTD=YEAR: 1996
EXTT0=
EXTT1=
EXTT2=
EXTT3=
EXTT4=
EXTT5=
EXTT6=
PLAYORDER=
